<svg width="50" height="50" viewBox="0 0 50 50" fill="none" xmlns="http://www.w3.org/2000/svg">
<g id="healthicons:provider-fst" clip-path="url(#clip0_4_283)">
<rect width="50" height="50" fill="white"/>
<g id="Group">
<g id="Vector">
<mask id="path-1-inside-1_4_283" fill="white">
<path d="M36.1607 20.225L40.0268 22.4125L38.9107 24.3069L35.0446 22.1194L36.1607 20.225ZM36.1607 15.85H40.625V18.0375H36.1607V15.85ZM14.9554 22.1194L11.0893 24.3069L9.97321 22.4125L13.8393 20.225L14.9554 22.1194ZM36.1607 39.9125H33.9286V34.4437C33.9268 32.9939 33.3383 31.6039 32.2922 30.5787C31.246 29.5534 29.8277 28.9767 28.3482 28.975H21.6518C20.1723 28.9767 18.754 29.5534 17.7078 30.5787C16.6617 31.6039 16.0732 32.9939 16.0714 34.4437V39.9125H13.8393V34.4437C13.8422 32.4141 14.6663 30.4683 16.1308 29.0331C17.5953 27.5979 19.5807 26.7904 21.6518 26.7875H28.3482C30.4193 26.7904 32.4047 27.5979 33.8692 29.0331C35.3337 30.4683 36.1578 32.4141 36.1607 34.4437V39.9125ZM25 11.475C26.1037 11.475 27.1826 11.7957 28.1003 12.3966C29.018 12.9975 29.7332 13.8516 30.1556 14.8509C30.5779 15.8502 30.6885 16.9498 30.4731 18.0106C30.2578 19.0715 29.7263 20.0459 28.9459 20.8107C28.1655 21.5755 27.1712 22.0964 26.0887 22.3074C25.0062 22.5184 23.8842 22.4101 22.8645 21.9962C21.8448 21.5823 20.9733 20.8813 20.3601 19.982C19.7469 19.0827 19.4196 18.0253 19.4196 16.9437C19.4196 15.4933 20.0076 14.1023 21.0541 13.0767C22.1006 12.0511 23.52 11.475 25 11.475ZM25 9.28748C23.4548 9.28748 21.9444 9.73651 20.6596 10.5778C19.3748 11.4191 18.3735 12.6148 17.7822 14.0138C17.1909 15.4128 17.0362 16.9522 17.3376 18.4374C17.6391 19.9226 18.3831 21.2868 19.4757 22.3575C20.5683 23.4283 21.9604 24.1574 23.4759 24.4529C24.9913 24.7483 26.5622 24.5967 27.9897 24.0172C29.4173 23.4377 30.6374 22.4564 31.4959 21.1973C32.3543 19.9382 32.8125 18.458 32.8125 16.9437C32.8125 14.9132 31.9894 12.9658 30.5243 11.5299C29.0591 10.0941 27.072 9.28748 25 9.28748ZM35.0446 11.7681L38.9107 9.5806L40.0268 11.475L36.1607 13.6625L35.0446 11.7681ZM9.375 15.85H13.8393V18.0375H9.375V15.85ZM13.8393 13.6625L9.97321 11.475L11.0893 9.5806L14.9554 11.7681L13.8393 13.6625Z"/>
</mask>
<path d="M36.1607 20.225L40.0268 22.4125L38.9107 24.3069L35.0446 22.1194L36.1607 20.225ZM36.1607 15.85H40.625V18.0375H36.1607V15.85ZM14.9554 22.1194L11.0893 24.3069L9.97321 22.4125L13.8393 20.225L14.9554 22.1194ZM36.1607 39.9125H33.9286V34.4437C33.9268 32.9939 33.3383 31.6039 32.2922 30.5787C31.246 29.5534 29.8277 28.9767 28.3482 28.975H21.6518C20.1723 28.9767 18.754 29.5534 17.7078 30.5787C16.6617 31.6039 16.0732 32.9939 16.0714 34.4437V39.9125H13.8393V34.4437C13.8422 32.4141 14.6663 30.4683 16.1308 29.0331C17.5953 27.5979 19.5807 26.7904 21.6518 26.7875H28.3482C30.4193 26.7904 32.4047 27.5979 33.8692 29.0331C35.3337 30.4683 36.1578 32.4141 36.1607 34.4437V39.9125ZM25 11.475C26.1037 11.475 27.1826 11.7957 28.1003 12.3966C29.018 12.9975 29.7332 13.8516 30.1556 14.8509C30.5779 15.8502 30.6885 16.9498 30.4731 18.0106C30.2578 19.0715 29.7263 20.0459 28.9459 20.8107C28.1655 21.5755 27.1712 22.0964 26.0887 22.3074C25.0062 22.5184 23.8842 22.4101 22.8645 21.9962C21.8448 21.5823 20.9733 20.8813 20.3601 19.982C19.7469 19.0827 19.4196 18.0253 19.4196 16.9437C19.4196 15.4933 20.0076 14.1023 21.0541 13.0767C22.1006 12.0511 23.52 11.475 25 11.475ZM25 9.28748C23.4548 9.28748 21.9444 9.73651 20.6596 10.5778C19.3748 11.4191 18.3735 12.6148 17.7822 14.0138C17.1909 15.4128 17.0362 16.9522 17.3376 18.4374C17.6391 19.9226 18.3831 21.2868 19.4757 22.3575C20.5683 23.4283 21.9604 24.1574 23.4759 24.4529C24.9913 24.7483 26.5622 24.5967 27.9897 24.0172C29.4173 23.4377 30.6374 22.4564 31.4959 21.1973C32.3543 19.9382 32.8125 18.458 32.8125 16.9437C32.8125 14.9132 31.9894 12.9658 30.5243 11.5299C29.0591 10.0941 27.072 9.28748 25 9.28748ZM35.0446 11.7681L38.9107 9.5806L40.0268 11.475L36.1607 13.6625L35.0446 11.7681ZM9.375 15.85H13.8393V18.0375H9.375V15.85ZM13.8393 13.6625L9.97321 11.475L11.0893 9.5806L14.9554 11.7681L13.8393 13.6625Z" fill="white"/>
<path d="M36.1607 20.225L37.6381 17.614L35.0724 16.1622L33.5759 18.7022L36.1607 20.225ZM40.0268 22.4125L42.6116 23.9353L44.1613 21.3049L41.5042 19.8015L40.0268 22.4125ZM38.9107 24.3069L37.4334 26.9179L39.9991 28.3696L41.4955 25.8297L38.9107 24.3069ZM35.0446 22.1194L32.4599 20.5965L30.9102 23.2269L33.5673 24.7304L35.0446 22.1194ZM36.1607 15.85V12.85H33.1607V15.85H36.1607ZM40.625 15.85H43.625V12.85H40.625V15.85ZM40.625 18.0375V21.0375H43.625V18.0375H40.625ZM36.1607 18.0375H33.1607V21.0375H36.1607V18.0375ZM14.9554 22.1194L16.4327 24.7304L19.0898 23.2269L17.5401 20.5965L14.9554 22.1194ZM11.0893 24.3069L8.50452 25.8297L10.0009 28.3696L12.5666 26.9179L11.0893 24.3069ZM9.97321 22.4125L8.49585 19.8015L5.83875 21.3049L7.38845 23.9353L9.97321 22.4125ZM13.8393 20.225L16.4241 18.7022L14.9276 16.1622L12.3619 17.614L13.8393 20.225ZM36.1607 39.9125V42.9125H39.1607V39.9125H36.1607ZM33.9286 39.9125H30.9286V42.9125H33.9286V39.9125ZM33.9286 34.4437H36.9286L36.9286 34.4401L33.9286 34.4437ZM28.3482 28.975L28.3517 25.975H28.3482V28.975ZM21.6518 28.975V25.975L21.6483 25.975L21.6518 28.975ZM16.0714 34.4437L13.0714 34.4401V34.4437H16.0714ZM16.0714 39.9125V42.9125H19.0714V39.9125H16.0714ZM13.8393 39.9125H10.8393V42.9125H13.8393V39.9125ZM13.8393 34.4437L10.8393 34.4394V34.4437H13.8393ZM21.6518 26.7875V23.7875L21.6476 23.7875L21.6518 26.7875ZM28.3482 26.7875L28.3524 23.7875H28.3482V26.7875ZM36.1607 34.4437H39.1607L39.1607 34.4394L36.1607 34.4437ZM25 11.475L25 14.475L25 11.475ZM19.4196 16.9437H16.4196H19.4196ZM35.0446 11.7681L33.5673 9.15709L30.9102 10.6605L32.4599 13.2909L35.0446 11.7681ZM38.9107 9.5806L41.4955 8.05778L39.9991 5.51785L37.4334 6.96959L38.9107 9.5806ZM40.0268 11.475L41.5042 14.086L44.1613 12.5826L42.6116 9.95216L40.0268 11.475ZM36.1607 13.6625L33.5759 15.1853L35.0724 17.7252L37.6381 16.2735L36.1607 13.6625ZM9.375 15.85V12.85H6.375V15.85H9.375ZM13.8393 15.85H16.8393V12.85H13.8393V15.85ZM13.8393 18.0375V21.0375H16.8393V18.0375H13.8393ZM9.375 18.0375H6.375V21.0375H9.375V18.0375ZM13.8393 13.6625L12.3619 16.2735L14.9276 17.7252L16.4241 15.1853L13.8393 13.6625ZM9.97321 11.475L7.38845 9.95216L5.83875 12.5825L8.49585 14.086L9.97321 11.475ZM11.0893 9.5806L12.5666 6.96959L10.0009 5.51785L8.50452 8.05778L11.0893 9.5806ZM14.9554 11.7681L17.5401 13.2909L19.0898 10.6605L16.4327 9.15709L14.9554 11.7681ZM34.6834 22.836L38.5494 25.0235L41.5042 19.8015L37.6381 17.614L34.6834 22.836ZM37.442 20.8897L36.3259 22.784L41.4955 25.8297L42.6116 23.9353L37.442 20.8897ZM40.3881 21.6958L36.522 19.5083L33.5673 24.7304L37.4334 26.9179L40.3881 21.6958ZM37.6294 23.6422L38.7455 21.7478L33.5759 18.7022L32.4599 20.5965L37.6294 23.6422ZM36.1607 18.85H40.625V12.85H36.1607V18.85ZM37.625 15.85V18.0375H43.625V15.85H37.625ZM40.625 15.0375H36.1607V21.0375H40.625V15.0375ZM39.1607 18.0375V15.85H33.1607V18.0375H39.1607ZM13.478 19.5083L9.61192 21.6958L12.5666 26.9179L16.4327 24.7304L13.478 19.5083ZM13.6741 22.784L12.558 20.8897L7.38845 23.9353L8.50452 25.8297L13.6741 22.784ZM11.4506 25.0235L15.3166 22.836L12.3619 17.614L8.49585 19.8015L11.4506 25.0235ZM11.2545 21.7478L12.3706 23.6422L17.5401 20.5965L16.4241 18.7022L11.2545 21.7478ZM36.1607 36.9125H33.9286V42.9125H36.1607V36.9125ZM36.9286 39.9125V34.4437H30.9286V39.9125H36.9286ZM36.9286 34.4401C36.9258 32.1761 36.0063 30.0181 34.392 28.436L30.1924 32.7213C30.6703 33.1897 30.9278 33.8117 30.9286 34.4474L36.9286 34.4401ZM34.392 28.436C32.7796 26.856 30.6063 25.9776 28.3517 25.975L28.3447 31.975C29.049 31.9758 29.7124 32.2509 30.1924 32.7213L34.392 28.436ZM28.3482 25.975H21.6518V31.975H28.3482V25.975ZM21.6483 25.975C19.3937 25.9776 17.2204 26.856 15.608 28.436L19.8076 32.7213C20.2876 32.2509 20.951 31.9758 21.6553 31.975L21.6483 25.975ZM15.608 28.436C13.9937 30.0181 13.0742 32.1761 13.0714 34.4401L19.0714 34.4474C19.0722 33.8117 19.3297 33.1897 19.8076 32.7213L15.608 28.436ZM13.0714 34.4437V39.9125H19.0714V34.4437H13.0714ZM16.0714 36.9125H13.8393V42.9125H16.0714V36.9125ZM16.8393 39.9125V34.4437H10.8393V39.9125H16.8393ZM16.8393 34.4481C16.8411 33.2323 17.3341 32.0543 18.2306 31.1758L14.031 26.8905C11.9985 28.8824 10.8434 31.5958 10.8393 34.4394L16.8393 34.4481ZM18.2306 31.1758C19.129 30.2953 20.3598 29.7893 21.656 29.7875L21.6476 23.7875C18.8016 23.7915 16.0615 24.9006 14.031 26.8905L18.2306 31.1758ZM21.6518 29.7875H28.3482V23.7875H21.6518V29.7875ZM28.344 29.7875C29.6402 29.7893 30.871 30.2953 31.7694 31.1758L35.969 26.8905C33.9385 24.9006 31.1984 23.7915 28.3524 23.7875L28.344 29.7875ZM31.7694 31.1758C32.6659 32.0543 33.1589 33.2323 33.1607 34.4481L39.1607 34.4394C39.1566 31.5958 38.0015 28.8824 35.969 26.8905L31.7694 31.1758ZM33.1607 34.4437V39.9125H39.1607V34.4437H33.1607ZM25 14.475C25.5237 14.475 26.0308 14.6274 26.4568 14.9064L29.7437 9.88683C28.3344 8.96398 26.6837 8.47498 25 8.47498L25 14.475ZM26.4568 14.9064C26.8822 15.185 27.2045 15.5746 27.3923 16.0189L32.9189 13.683C32.262 12.1287 31.1537 10.8101 29.7437 9.88683L26.4568 14.9064ZM27.3923 16.0189C27.5798 16.4625 27.6278 16.9471 27.5331 17.4139L33.4132 18.6074C33.7491 16.9525 33.5761 15.2379 32.9189 13.683L27.3923 16.0189ZM27.5331 17.4139C27.4382 17.8811 27.2026 18.3188 26.8461 18.6681L31.0457 22.9534C32.2501 21.773 33.0774 20.2618 33.4132 18.6074L27.5331 17.4139ZM26.8461 18.6681C26.489 19.018 26.0268 19.263 25.5147 19.3628L26.6627 25.252C28.3156 24.9298 29.8419 24.133 31.0457 22.9534L26.8461 18.6681ZM25.5147 19.3628C25.0023 19.4627 24.4719 19.4109 23.9929 19.2165L21.7361 24.7759C23.2965 25.4093 25.0101 25.5741 26.6627 25.252L25.5147 19.3628ZM23.9929 19.2165C23.5144 19.0222 23.1151 18.6973 22.8388 18.292L17.8814 21.672C18.8314 23.0654 20.1753 24.1423 21.7361 24.7759L23.9929 19.2165ZM22.8388 18.292C22.563 17.8874 22.4196 17.4183 22.4196 16.9437H16.4196C16.4196 18.6323 16.9309 20.2779 17.8814 21.672L22.8388 18.292ZM22.4196 16.9437C22.4196 16.3088 22.6765 15.6872 23.1539 15.2194L18.9543 10.9341C17.3387 12.5174 16.4196 14.6779 16.4196 16.9437H22.4196ZM23.1539 15.2194C23.6333 14.7495 24.2963 14.475 25 14.475L25 8.47498C22.7437 8.47498 20.5679 9.3528 18.9543 10.9341L23.1539 15.2194ZM25 6.28748C22.8748 6.28748 20.7926 6.90478 19.0162 8.06799L22.3031 13.0876C23.0962 12.5682 24.0348 12.2875 25 12.2875L25 6.28748ZM19.0162 8.06799C17.2391 9.23163 15.8448 10.8919 15.0189 12.8458L20.5455 15.1818C20.9022 14.3377 21.5106 13.6065 22.3031 13.0876L19.0162 8.06799ZM15.0189 12.8458C14.1927 14.8005 13.9756 16.9549 14.3976 19.0341L20.2777 17.8406C20.0968 16.9495 20.189 16.0251 20.5455 15.1818L15.0189 12.8458ZM14.3976 19.0341C14.8195 21.1129 15.8594 23.0139 17.3759 24.5001L21.5755 20.2149C20.9069 19.5596 20.4586 18.7322 20.2777 17.8406L14.3976 19.0341ZM17.3759 24.5001C18.8919 25.9858 20.816 26.9908 22.9019 27.3974L24.0499 21.5083C23.1048 21.3241 22.2448 20.8708 21.5755 20.2149L17.3759 24.5001ZM22.9019 27.3974C24.9875 27.804 27.1499 27.5958 29.1181 26.7969L26.8613 21.2375C25.9745 21.5975 24.9952 21.6926 24.0499 21.5083L22.9019 27.3974ZM29.1181 26.7969C31.0868 25.9977 32.7793 24.6404 33.9745 22.8873L29.0172 19.5073C28.4956 20.2723 27.7477 20.8777 26.8613 21.2375L29.1181 26.7969ZM33.9745 22.8873C35.1703 21.1335 35.8125 19.065 35.8125 16.9437H29.8125C29.8125 17.851 29.5383 18.743 29.0172 19.5073L33.9745 22.8873ZM35.8125 16.9437C35.8125 14.0977 34.6583 11.3809 32.6241 9.3873L28.4245 13.6726C29.3205 14.5507 29.8125 15.7286 29.8125 16.9437H35.8125ZM32.6241 9.3873C30.5919 7.39577 27.8483 6.28748 25 6.28748L25 12.2875C26.2957 12.2875 27.5264 12.7925 28.4245 13.6726L32.6241 9.3873ZM36.522 14.3791L40.3881 12.1916L37.4334 6.96959L33.5673 9.15709L36.522 14.3791ZM36.3259 11.1034L37.442 12.9978L42.6116 9.95216L41.4955 8.05778L36.3259 11.1034ZM38.5494 8.86396L34.6834 11.0515L37.6381 16.2735L41.5042 14.086L38.5494 8.86396ZM38.7455 12.1397L37.6294 10.2453L32.4599 13.2909L33.5759 15.1853L38.7455 12.1397ZM9.375 18.85H13.8393V12.85H9.375V18.85ZM10.8393 15.85V18.0375H16.8393V15.85H10.8393ZM13.8393 15.0375H9.375V21.0375H13.8393V15.0375ZM12.375 18.0375V15.85H6.375V18.0375H12.375ZM15.3166 11.0515L11.4506 8.86396L8.49585 14.086L12.3619 16.2735L15.3166 11.0515ZM12.558 12.9978L13.6741 11.1034L8.50452 8.05778L7.38845 9.95216L12.558 12.9978ZM9.61192 12.1916L13.478 14.3791L16.4327 9.15709L12.5666 6.96959L9.61192 12.1916ZM12.3706 10.2453L11.2545 12.1397L16.4241 15.1853L17.5401 13.2909L12.3706 10.2453Z" fill="black" mask="url(#path-1-inside-1_4_283)"/>
</g>
</g>
</g>
<defs>
<clipPath id="clip0_4_283">
<rect width="50" height="50" fill="white"/>
</clipPath>
</defs>
</svg>
