<svg width="50" height="50" viewBox="0 0 50 50" fill="none" xmlns="http://www.w3.org/2000/svg">
<g id="mdi:database-outline">
<path id="Vector" d="M25 6.25C15.7917 6.25 8.33334 9.97917 8.33334 14.5833V35.4167C8.33334 40.0208 15.8125 43.75 25 43.75C34.1875 43.75 41.6667 40.0208 41.6667 35.4167V14.5833C41.6667 9.97917 34.2083 6.25 25 6.25ZM37.5 35.4167C37.5 36.4583 33.0625 39.5833 25 39.5833C16.9375 39.5833 12.5 36.4583 12.5 35.4167V30.7708C15.8542 32.3958 20.25 33.3333 25 33.3333C29.75 33.3333 34.1458 32.3958 37.5 30.7708V35.4167ZM37.5 25.9375C34.7917 27.9167 30.0417 29.1667 25 29.1667C19.9583 29.1667 15.2083 27.9167 12.5 25.9375V20.0833C15.5625 21.8125 20.0208 22.9167 25 22.9167C29.9792 22.9167 34.4375 21.8125 37.5 20.0833V25.9375ZM25 18.75C16.9375 18.75 12.5 15.625 12.5 14.5833C12.5 13.5417 16.9375 10.4167 25 10.4167C33.0625 10.4167 37.5 13.5417 37.5 14.5833C37.5 15.625 33.0625 18.75 25 18.75Z" fill="black"/>
</g>
</svg>
